<?xml version="1.0" encoding="utf-8"?>
<!-- Generator: Adobe Illustrator 24.2.1, SVG Export Plug-In . SVG Version: 6.00 Build 0)  -->
<svg version="1.1" id="Layer_1" xmlns="http://www.w3.org/2000/svg" xmlns:xlink="http://www.w3.org/1999/xlink" x="0px" y="0px"
	 viewBox="0 0 329 235" style="enable-background:new 0 0 329 235;" xml:space="preserve">
<style type="text/css">
	.st0{fill:none;}
	.st1{fill:#EF9557;}
	.st2{fill:#F58120;}
	.st3{fill:#FFFFFF;}
</style>
<path class="st0" d="M152.66,54.86c0,0-0.07,0.04-0.08,0.04l-0.46,0.33C152.61,55.85,153.84,54.2,152.66,54.86z"/>
<path class="st0" d="M150.79,52.03l1.17-0.22C149.77,51.24,151.47,51.63,150.79,52.03z"/>
<path class="st0" d="M156.36,45.16c0,0-0.28-1.12-0.24-0.01C156.15,46.29,156.96,45.35,156.36,45.16z"/>
<path class="st0" d="M162.02,53l-0.06,1.3C162.61,53.58,162.4,53.57,162.02,53z"/>
<path class="st0" d="M161.85,55.82c-0.01,0.01-1.47-0.63-0.62,0.29C161.81,56.75,163.24,55.31,161.85,55.82z"/>
<polygon class="st1" points="158.27,55.4 157.96,55.75 158.29,55.85 "/>
<path class="st0" d="M144.1,60.44l0.07-0.01c0,0,0.06-0.06,0.06-0.06l0.02-0.09c-0.03-0.01-0.05-0.01-0.07-0.02
	c-0.03,0.04-0.05,0.08-0.09,0.12C144.08,60.4,144.1,60.42,144.1,60.44z"/>
<path class="st0" d="M120.1,65.41C120.02,65.68,120.12,65.9,120.1,65.41L120.1,65.41z"/>
<path class="st0" d="M144.18,60.27C145.19,58.93,142.78,59.98,144.18,60.27L144.18,60.27z"/>
<path class="st0" d="M123.81,66.92c-1.3-0.75,0.23-1.31-1.96-0.08C122.28,67.33,123.15,67.08,123.81,66.92z"/>
<path class="st0" d="M131.57,67.46c-1.68-0.85-6.03-2.36-4.94,0.98C128.23,67.31,128.75,67.66,131.57,67.46z"/>
<path class="st0" d="M132.97,59.13c-0.41,0.66-0.07,0.58-0.46-0.15c-0.45,0.42-1.28-1.15-0.14,0.79
	C133.43,60.67,133.14,59.35,132.97,59.13z"/>
<path class="st0" d="M131.59,58.11c-0.54,0.09-1.05-0.02-1.03,0.63C131.68,59.27,131.62,59.41,131.59,58.11z"/>
<path class="st0" d="M136.18,97.13c-0.03,0.01-2.83-0.86-1.3,0.41C136.1,98.56,138.94,96.47,136.18,97.13z"/>
<path class="st0" d="M135.54,104.15c0,0-0.11-0.02-0.11-0.02c-0.61-0.02-0.73-2.17-0.76,0.04
	C134.64,106.65,137,104.39,135.54,104.15z"/>
<path class="st0" d="M181.58,60.74c-1.05-0.68-1.18-0.44-2.54-0.2C180.34,60.96,180.63,61.34,181.58,60.74z"/>
<path class="st0" d="M178.78,57.54c-1.13-0.72-0.62-0.45-1.45,0C178.16,58.04,177.6,58.38,178.78,57.54z"/>
<path class="st0" d="M164.27,96.03l-3.91-0.13C162.52,97.57,162.11,97.56,164.27,96.03z"/>
<path class="st0" d="M167.47,58.92c-0.01,0-0.72-0.3-0.37,0.08C167.68,59.62,168.23,58.84,167.47,58.92z"/>
<path class="st0" d="M148.73,94.05c3.23,0.3,3.02,0.07,4.29-2.85C149.63,91.87,150.06,91.8,148.73,94.05z"/>
<path class="st0" d="M144.2,77.72l4.56,0.2C146.29,76.86,146.87,76.4,144.2,77.72z"/>
<path class="st0" d="M152.67,95.96l3.6,1.26C154.78,95.73,158.57,95.61,152.67,95.96z"/>
<path class="st0" d="M115.9,78.34c-0.77-0.44-0.33-0.47-1.86-0.78c-1.21-0.24-1.21-0.02-2.42,0.08
	C113.78,78.68,112.9,78.33,115.9,78.34z"/>
<path class="st0" d="M112.61,85.74c2.58-0.82,6.05-4.54,6.09-6.74c0.02-1-1.43-0.7-3.49-0.53C114.5,81.34,114,83.76,112.61,85.74z"
	/>
<path class="st0" d="M120.76,70.95l0.21,0.72c0.64,1.51,0.18,1.46,0.48,0.12c0.6-0.54,0.44,0.06,0.93-1.17
	c0.54-1.34,0.15-0.71,0.15-2c-4.05-0.25-0.97-0.25-1.84,0.75C120.01,70.03,118.65,70.95,120.76,70.95z"/>
<path class="st0" d="M111.95,103.86c-0.06,0.03-0.73,0.14-0.58,0.29C112.27,105.01,114.97,102.45,111.95,103.86z"/>
<path class="st0" d="M116.39,96.83c2.41-0.76,1.16,0.19,2.07-1.77C114.25,96.05,118.22,95.25,116.39,96.83z"/>
<path class="st0" d="M100.11,92.89c-0.7-0.34-2.36-0.46-1.53,0.41C98.71,93.44,101.88,93.76,100.11,92.89z"/>
<path class="st0" d="M107.51,94.99c-2.25-1.01-2.4-1.44-4.84,0C104.94,96.12,105.17,96.38,107.51,94.99z"/>
<path class="st0" d="M120.1,65.41c0.05-0.18,0.19-0.37,0.49-0.4c0,0,0.08-0.02,0.08-0.02c0.86-0.22-0.78-1.86-0.6,0.03
	C120.09,65.19,120.1,65.31,120.1,65.41z"/>
<g>
	<g>
		<path class="st2" d="M181.01,17.14c-0.4-10.97-3.29-13.12-17.35,0.28C169.42,17.26,175.24,16.95,181.01,17.14z"/>
		<path class="st2" d="M157.47,23.56c-2.06,2.11-4.08,4.26-6.04,6.45c1.89,1.81-0.08,3.08-0.92,5.19l-1.03,2.02l-0.62-2.51
			l-0.93,0.79c-0.19,0.17-0.44,0.45-0.59,0.51c-0.11,0.04-0.49,0.1-0.58-0.07c-0.06-0.11-0.15-0.21-0.24-0.31
			c-4.53,5.36-8.82,10.9-12.89,16.64c6.4-1.41,13.83-1.95,20.86-1.48c1.32-1.48,2.7-2.92,4.13-4.36c-0.2,1.54-0.38,3.11-0.56,4.7
			c0.58,0.07,1.17,0.15,1.74,0.23c-0.6,0.13-1.2,0.25-1.8,0.36c-0.96,8.97-1.56,18.59-1.89,27.36l4.21,0.56
			c-1.2,0.42-2.54,0.86-4.27,0.94c-0.19,5.49-0.27,10.59-0.27,14.93c-0.33,0.25-17.38,0.38-29.78,7.22
			c6.32-15.92,11.59-27.46,17.33-36.85c-1.9-0.05-4.25-0.05-5.96-0.12l-6.21-0.99l0.1-2.73c-0.41-1.96-0.78-1.94,1.57-0.81
			c0.11,0.05,0.57,0.37,0.67,0.44c0.15,0.1,0.5,0.55,0.62,0.88l0.64,1.8l5.6,0.25c0.44,0.08,0.91,0.19,1.31,0.28l1.79,0.79
			c2.97-4.84,6.06-9.1,9.48-13.1c-6.55,0.9-12.88,1.03-19.79,0.39c-0.65,0.92-1.29,1.85-1.94,2.79c0.78,0.1,1.77,0.25,3.16,0.41
			l-3.73,0.44c-6.88,10.12-13.1,20.79-18.77,31.97c-3.47,6.83-6.49,14.49-8.86,21.75c3.78-0.09-1.66-0.14,1.39,1.9l-1.96-0.13
			c-4.05,12.83-5.98,24.06-4.61,26.57c0.4,0.75,3.61-3.56,10.69-7.62c7.57-4.34,46.84-26.88,48.98-7.93
			c1.16,10.34-0.32,15.08,3.54,16.82c2.47,1.11,9.16,0.68,13.56,0.74c3.64,0.04,5.85-0.66,7.13-1.98
			c2.78-2.89,0.19-22.01,0.04-28.43c6.66-2.97,55.03-3.9,66.13-0.5c-7.41-11.27-50.17-15.02-66.46-16.09
			c-0.23-13.93-0.44-31.24-0.63-52.87c-0.08-9.39,0.37-17.4,0.21-23.14c-5.05,0.34-12.25,0.88-12.86,0.7
			c-1.65-0.01-3.53,0-5.49,0.03C161.08,19.91,159.35,21.63,157.47,23.56z M157.56,26.73c0.76,1.13,1.18,1.16-0.11,2.6L157.56,26.73z
			 M155.98,32.95c-1.71-1.84,1.2-0.57,1.23-0.58C160,31.34,157.15,34.2,155.98,32.95z M102.99,128.82c0.06-4.41,0.29-0.11,1.51-0.08
			c0.01,0,0.22,0.04,0.22,0.04C107.65,129.25,102.93,133.75,102.99,128.82z M103.41,115.58c-3.04-2.54,2.54-0.81,2.59-0.82
			C111.52,113.44,105.85,117.62,103.41,115.58z M131.11,76.44l-9.1-0.39C127.34,73.41,126.18,74.34,131.11,76.44z M131.05,108.63
			c2.65-4.5,1.78-4.35,8.56-5.69C137.07,108.76,137.5,109.24,131.05,108.63z M138.9,112.44c11.78-0.69,4.22-0.47,7.19,2.51
			L138.9,112.44z M168.43,38.54c1.52-0.17,0.41,1.39-0.74,0.15C166.99,37.93,168.42,38.55,168.43,38.54z M154.24,112.32l7.8,0.26
			C157.74,115.63,158.56,115.64,154.24,112.32z"/>
	</g>
	<g>
		<path class="st3" d="M143.96,16.68c2.07-0.02,4.07,0.09,5.86,0.44c1.5,0.14,3,0.24,4.51,0.3c12.89-11.98,12.78-12.9-16.22-6.75
			c-7.13,1.51-13.54,3.67-19.36,6.18c2.79,0.16,5.5,0.33,7.94,0.42C131.15,17.91,137.89,16.75,143.96,16.68z M146.26,11.09
			c1.2,0.39-0.42,2.26-0.49-0.03C145.71,8.86,146.25,11.09,146.26,11.09z"/>
		<path class="st3" d="M206.87,92.19c10.1,1.31,17.32,2.63,25.87,6.07c17.14,6.9,16.48,13.4,15.26-3.27
			c-0.49-6.68-0.29-13.41,0.79-19.96l-0.92-0.25l0.97-0.05c1.22-7.14,3.48-14.08,7.08-20.53c4.34-7.79,3.16-11.5-1.28-13.97
			c-1.13-0.63-3.87-1.57-7.53-2.89l-0.03-0.01c-1.81-0.65-3.85-1.4-6.03-2.26c0.99,2.41,0.35,2.76-0.03,3.58
			c-1.32-1.69-0.77,0.74-1.06-2.13c-0.1-0.99-0.05-1.55,0.05-1.86c-1.65-0.65-3.38-1.37-5.14-2.14c-2.43-0.72-2.36-0.62-2.12-0.95
			c-1.46-0.67-2.93-1.38-4.4-2.13c-0.62-0.32-1.24-0.65-1.85-0.99c0.21,0.51-0.05,1.2-0.47-0.26l-0.16-0.09
			c-0.07,0.02-0.15,0.05-0.23,0.09c-0.04,0.03-0.77,0.14-0.77-0.12c0-0.2,0.01-0.38,0.02-0.53c-6-3.46-11.73-7.63-15.3-10.08
			c-0.71-0.04-1.43-0.1-2.17-0.18c0.44-0.15,0.86-0.29,1.28-0.42c-0.94-0.63-1.68-1.09-2.17-1.32c-11.12-5.24-14.42-3.51-16.12,1.52
			l2.15-0.42l4.28-0.09c1.74-0.49,0.95-0.58,1.25-0.86c0.11-0.1,0.04-0.4,1.17-1.1c1.83,1.71,1.09-1.27,1.5,1.82l4.2,0.79
			l-3.79,1.13c-4.56,0.2-4.45,0.5-8.62-0.68c-0.25,0.07-1.1,0.25-1.24,0.27c-0.09,0-0.44,0.03-0.51-0.15
			c-0.06-0.16-0.25-0.2-0.46-0.51c-0.41,1.28-0.72,2.75-1.04,4.38c-1.2,6.16-2.03,12.64-2.62,19.41c1.03-0.06,0.49-0.27,2.15,1.13
			c-1.01,0.02-1.74,0.03-2.24,0.03c-0.83,10.06-1.12,20.72-1.32,31.83C184.95,92.76,185.35,89.41,206.87,92.19z M236.57,93.45
			c-7.98,1.15-1.11,0.78-3.65-0.77c4.72-2.84,3.58-1.61,9.49-1.19C241.94,91.68,237.7,93.28,236.57,93.45z M236.85,35.01l-0.31,2.89
			l-1.29-3.06L236.85,35.01z M234.01,39.62c1.73-0.95,0.59-0.01,0.39-3.38c1.01,1.34,0.55-1.97,1.39,2.33
			c0.33,1.71,0.18,1-0.62,2.32l-1.53-1.12C233.76,39.71,233.98,39.64,234.01,39.62z M242.13,73.04l2.49,1.31
			c-5.76,3.55-7.2,3.46-13.38,1.1C235.19,72.52,236.66,72.07,242.13,73.04z M220.44,66.8l-5.82,0.27c1.09-0.92,2.86-2.66,3.4-2.77
			C223.94,63.13,219.08,64.72,220.44,66.8z M223.59,40.03l1.39-0.63C227.89,38.35,224.8,41.16,223.59,40.03z M220,28.16
			c0.35,0.45,1.53-0.46,0.07,1.73C219.24,29.1,219.43,29.18,220,28.16z M210.88,37.21c4.14,0,11.52-1.75,14.65-0.69l-10.62,2.12
			l-5.96,0.07C209.87,37.37,208.96,38.02,210.88,37.21z M207.72,64.97c4.05-2.35-0.22,3.82-1.87,1.36
			C203,62.09,207.68,64.99,207.72,64.97z M202.53,38.93l0.03,1.53l1.9,0.33v0.88l-3.5-0.74L202.53,38.93z M196.59,42.16
			c-1.89,1.2-2.49,0.44-5.07-0.4C194.23,41.3,194.49,40.81,196.59,42.16z M188.1,35.78c1.65-0.89,0.64-1.43,2.88,0
			C188.64,37.47,189.75,36.8,188.1,35.78z"/>
		<path class="st3" d="M327.73,117.97c-12.16-6.58-17.9-16.37-17.33-28.95c-0.17-6.02-1.54-12.86-4.4-18.91
			c-0.59-0.27-1.27-0.66-2.21-1.19c0.68-0.27,1.06-0.49,1.27-0.68c-2.72-5.04-6.56-9.35-11.67-11.89
			c-14.52-7.22-21.87-13.26-29.93-1.34c-4.15,6.13-7.24,12.67-9.22,19.43l5.56-0.29c-2.71,1.45-4.31,1.95-6.02,1.9l0,0
			c-3.33,12.5-2.91,25.71,1.6,38.39c0.41,0.46,3.66,2.35,4.86,5.28c1.6,3.92,1.19,10.75,1.27,11.9c0.54,7.53,4.8,9.12,11.46,9.19
			c2.59,0.03,4.43,0.68,7.52-0.34c7.59-2.5,8.05-7.64,8.15-13.75c0.05-3.06,5.69-10.1,7.66-12.94c2.77-3.99,5.48-8.55,6.64-14.81
			c3.77,10.39,11.37,16.93,24.54,19.17C327.75,118.19,327.85,118.03,327.73,117.97z M261.91,82.68c0-0.18-0.01-0.32-0.02-0.46
			c-1.09-0.85-0.11-2.7,0,0c0.27,0.21,0.66,0.36,1.23,0.36l0.18,0.04C265.49,82.92,261.92,86.74,261.91,82.68z M267.62,99.26
			c-3.05-2.8,1.94-0.94,1.98-0.95C274.08,96.6,269.47,100.96,267.62,99.26z M267.34,75.94c-2.86-3.1,2.12-1.12,2.16-1.14
			C274.21,72.83,269.4,78.18,267.34,75.94z M275.97,76.35c-6.77,0.53-2.6-1.21-4.01-2c4.93-2.26,4.17-0.99,10.27-1.38
			C278.12,76.99,282.68,75.82,275.97,76.35z M289.02,76.01c0.81-5.34,2.01-1.67,2.26-0.36C291.6,77.31,288.57,78.99,289.02,76.01z
			 M301.87,76.21c-3.2-4.16,2.4-1.26,2.45-1.28C309.4,72.85,303.99,78.98,301.87,76.21z"/>
		<path class="st3" d="M56.62,140.61c2.89-7.27,9.99-15.42,19.55-19.95c5.2-2.46,9.24-4.04,12.47-5.34
			c-4.96-0.06-9.94-0.6-13.82-3.13l18.6,0.17c4.95-7.82,7.68-18.63,8.16-32.44l-2.75,0.81c-1.56,0.06,0.45-0.07-2.39-0.21
			c-25.62-1.27-3.53,0.03-16.44-1.78c-6.78-0.95-4.78,1.54-10.57-2.7c17,1.54,13.79-0.36,32.18,3.04c0.02-0.71,0.04-1.43,0.04-2.15
			c0.21,0.77,0.41,1.52,0.6,2.27c0.34,0.06,0.76,0.14,1.13,0.19l-1.01,0.3c2.51,10.3,2.47,18.89-0.12,25.76
			c4.75-7.33,6.54-18.11,6.61-29.43c-5.01-0.31,0.71,0.37-2.13-1.36c1.19-0.56,0.62-1.01,2.12-1.05c-0.25-16.2-3.81-33.1-7.22-42.38
			c6.53,9.39,10.61,18.93,12.71,28.35c2.67,11.99,1.19,13.6,8.35,1.02c11.81-20.75,22.61-34.55,30.49-42.1
			c-4.01,0.04-7.59,0.04-9.69-0.14l-19.26-0.25c0.18,0.13,0.42,0.29,0.56,0.35c0.14,0.07,0.41,0.23,0.58,0.31
			c-7.8,0.21-9.69,0.6-6.62,1.43v0.26c-1.07,1.76-0.7,5.22-1.76,1.83l-0.48-3.51l-1.25-0.36c-0.65,0.31-1.3,0.62-1.94,0.94
			c-0.73,1.26-1.41,1.53-2.86,1.46c-6.8,3.58-12.77,7.5-18.22,11.15c-3.63-0.7-4.86-3.56-10.57-7.77c-2.12-1.56-4.48-2.41-6.98-2.72
			l1.66,0.46c-3.16,0.33-3.28,0.69-5.78-0.32l-0.03-0.17c-1.13,0.11-2.27,0.3-3.42,0.58c0.01,0.92-0.62,8.19,1.41,11.38
			c2.54,4,5.98,5.49,7.47,6.64c-1.91,2.03-10.84,5-14.33,9.79c-0.23,0.27-0.9,1.57-1.74,3.36c2.24-0.48,4.38,1.24,0.9,0.79
			c-0.02,0-0.71,0.11-1.35,0.16c-0.95,2.04-2.05,4.5-3.02,6.72l1.11,0.04l-1.15,0.06c-1.33,3.07-2.39,5.64-2.38,5.91
			c0.35,8.38,1.46,9.38-0.64,13.19c-3.92,14.66-17.67,9.44-30.96,6.45c1.57,4.2,12.44,13.27,24.89,13.03
			c-14.99,9.22-34.83-1.89-46.09-18.32c-0.57,10.1,16.4,32.9,41.35,35.08C36.81,125.04,47.66,140.66,56.62,140.61z M138.72,30.52
			c0.01-0.01,0.15-0.08,0.15-0.09c2.37-1.31-0.09,1.98-1.07,0.74L138.72,30.52z M137.49,24.35l-2.33,0.44
			C136.51,24,133.12,23.22,137.49,24.35z M121.97,41.23c0.05,0.01,0.09,0.02,0.15,0.04l-0.03,0.17c0,0-0.12,0.11-0.12,0.12
			l-0.15,0.03c0-0.04-0.04-0.08-0.02-0.11C121.86,41.38,121.9,41.31,121.97,41.23C119.17,40.66,123.98,38.56,121.97,41.23z
			 M98.69,38.65c0.76,1.46,0.09,1.62,0.91,0.3c0.35,0.44,0.92,3.08-1.2,1.29C96.13,36.36,97.8,39.48,98.69,38.65z M96.85,36.92
			c0.07,2.61,0.18,2.32-2.05,1.26C94.77,36.87,95.78,37.1,96.85,36.92z M96.82,55.57c-5.64,0.4-6.67-0.3-9.85,1.95
			C84.79,50.87,93.46,53.88,96.82,55.57z M81.33,54.5c-1.33,0.33-3.06,0.83-3.91-0.16C81.79,51.89,78.73,53.01,81.33,54.5z
			 M75.07,50.65c0,0-0.14,0.04-0.15,0.04c-0.61,0.07-0.88,0.46-0.99,0.81c0.03,0.97-0.17,0.54,0,0c-0.01-0.2-0.02-0.45-0.05-0.78
			C73.51,46.93,76.78,50.21,75.07,50.65z M75.14,59.41c1.74-1.99-4.41-1.99,3.67-1.5c-0.02,2.57,0.76,1.32-0.31,3.99
			c-0.99,2.45-0.67,1.27-1.86,2.34c-0.6,2.66,0.33,2.77-0.95-0.25l-0.43-1.44C71.03,62.55,73.75,60.71,75.14,59.41z M66.53,114.16
			c3.66-3.15-4.27-1.55,4.13-3.53C68.84,114.54,71.33,112.65,66.53,114.16z M71.13,78.6c-0.07,4.39-6.99,11.81-12.14,13.44
			c2.77-3.94,3.78-8.77,5.17-14.5C68.28,77.21,71.16,76.61,71.13,78.6z M61.85,75.73c3.04,0.61,2.17,0.67,3.71,1.55
			c-5.98-0.02-4.23,0.69-8.53-1.39C59.44,75.7,59.43,75.24,61.85,75.73z M57.67,128.2c6.02-2.81,0.64,2.29-1.15,0.57
			C56.2,128.48,57.55,128.26,57.67,128.2z M31,107.14c-1.66-1.74,1.66-1.51,3.06-0.82C37.59,108.05,31.27,107.42,31,107.14z
			 M39.17,110.49c4.87-2.87,5.18-2.01,9.66,0.01C44.14,113.28,43.69,112.75,39.17,110.49z"/>
	</g>
	<g>
		<polygon class="st3" points="254.87,173.06 265.94,158.4 211.74,158.4 211.67,158.52 211.42,158.4 171.2,228.05 171.52,228.05 
			187.66,228.05 223.27,228.05 234.34,213.39 196.26,213.39 219.94,173.06 		"/>
		<polygon class="st3" points="201.78,166.24 201.98,165.94 206.72,158.4 189.25,158.4 188.29,160.06 171.8,188.61 148.75,188.61 
			160.17,169.15 161.89,166.24 167.25,158.4 149.36,158.4 148.4,160.06 127.68,195.95 127.71,195.95 123.39,203.27 163.33,203.27 
			149.03,228.05 165.49,228.05 200.06,169.15 		"/>
		<polygon class="st3" points="131.84,213.44 126.2,213.44 122.39,213.44 113.15,213.44 111.65,213.44 105.07,200.53 119.38,200.53 
			127.84,185.93 96.56,185.93 87.92,173 122.85,173 135.83,173 144.28,158.4 122.85,158.4 63.07,158.4 102.52,228.06 107.9,228.05 
			107.9,228.06 113.15,228.06 113.15,228.05 122.39,228.05 122.39,228.06 130.12,228.06 138.58,213.46 131.83,213.46 		"/>
	</g>
</g>
</svg>
